HIERARCHY
ROOT joint_Root
{
	OFFSET 0.0 0.0 0.0
	CHANNELS 6 Xposition Yposition Zposition Zrotation Xrotation Yrotation 
	JOINT Hips
	{
		OFFSET 4.5925 91.4895 -427.239
		CHANNELS 6 Xposition Yposition Zposition Zrotation Xrotation Yrotation 
		JOINT Spine
		{
			OFFSET 15.7357 0.0 0.0
			CHANNELS 6 Xposition Yposition Zposition Zrotation Xrotation Yrotation 
			JOINT Chest
			{
				OFFSET 8.98455 -0.406207 0.0
				CHANNELS 6 Xposition Yposition Zposition Zrotation Xrotation Yrotation 
				JOINT Neck
				{
					OFFSET 16.3773 0.0 0.0
					CHANNELS 6 Xposition Yposition Zposition Zrotation Xrotation Yrotation 
					JOINT Head
					{
						OFFSET 6.45672 0.0 0.0
						CHANNELS 6 Xposition Yposition Zposition Zrotation Xrotation Yrotation 
						End Site
						{
							OFFSET 0.0 0.0 0.0
						}
					}
				}
				JOINT Shoulder_L
				{
					OFFSET 12.9942 -0.242716 4.98039
					CHANNELS 6 Xposition Yposition Zposition Zrotation Xrotation Yrotation 
					JOINT UpperArm_L
					{
						OFFSET 5.34809 0.0 0.0
						CHANNELS 6 Xposition Yposition Zposition Zrotation Xrotation Yrotation 
						JOINT LowerArm_L
						{
							OFFSET 24.3286 1.87007e-05 0.0
							CHANNELS 6 Xposition Yposition Zposition Zrotation Xrotation Yrotation 
							JOINT Hand_L
							{
								OFFSET 22.2916 0.0 0.0
								CHANNELS 6 Xposition Yposition Zposition Zrotation Xrotation Yrotation 
								End Site
								{
									OFFSET 0.0 0.0 0.0
								}
							}
						}
					}
				}
				JOINT Shoulder_R
				{
					OFFSET 12.9945 -0.242716 -4.98039
					CHANNELS 6 Xposition Yposition Zposition Zrotation Xrotation Yrotation 
					JOINT UpperArm_R
					{
						OFFSET -5.34813 0.0 0.0
						CHANNELS 6 Xposition Yposition Zposition Zrotation Xrotation Yrotation 
						JOINT LowerArm_R
						{
							OFFSET -24.3289 0.000322201 0.0
							CHANNELS 6 Xposition Yposition Zposition Zrotation Xrotation Yrotation 
							JOINT Hand_R
							{
								OFFSET -22.2915 -0.000108084 0.0
								CHANNELS 6 Xposition Yposition Zposition Zrotation Xrotation Yrotation 
								End Site
								{
									OFFSET 0.0 0.0 0.0
								}
							}
						}
					}
				}
			}
		}
		JOINT UpperLeg_L
		{
			OFFSET -2.19248 -6.46944 0.0
			CHANNELS 6 Xposition Yposition Zposition Zrotation Xrotation Yrotation 
			JOINT LowerLeg_L
			{
				OFFSET 39.0811 0.0 -1.23785e-05
				CHANNELS 6 Xposition Yposition Zposition Zrotation Xrotation Yrotation 
				JOINT Foot_L
				{
					OFFSET 40.9854 0.0 -1.26872e-05
					CHANNELS 6 Xposition Yposition Zposition Zrotation Xrotation Yrotation 
					JOINT Toes_L
					{
						OFFSET 11.7543 0.0 0.0
						CHANNELS 6 Xposition Yposition Zposition Zrotation Xrotation Yrotation 
						End Site
						{
							OFFSET 0.0 0.0 0.0
						}
					}
				}
			}
		}
		JOINT UpperLeg_R
		{
			OFFSET -2.19251 6.46944 0.0
			CHANNELS 6 Xposition Yposition Zposition Zrotation Xrotation Yrotation 
			JOINT LowerLeg_R
			{
				OFFSET -39.0811 -0.00228153 -0.0401928
				CHANNELS 6 Xposition Yposition Zposition Zrotation Xrotation Yrotation 
				JOINT Foot_R
				{
					OFFSET -40.9854 0.0 0.0
					CHANNELS 6 Xposition Yposition Zposition Zrotation Xrotation Yrotation 
					JOINT Toes_R
					{
						OFFSET -11.7543 0.0 0.0
						CHANNELS 6 Xposition Yposition Zposition Zrotation Xrotation Yrotation 
						End Site
						{
							OFFSET 0.0 0.0 0.0
						}
					}
				}
			}
		}
	}
}
MOTION
Frames:	9
Frame Time:	0.0333333
0.000000 0.000000 0.000000 0.000000 0.000000 -0.000000 -3.524590 91.463300 1.820280 89.526600 8.680260 2.020300 15.735700 0.000005 -0.000001 104.063000 86.248800 -106.968000 8.984550 -0.406207 -0.000000 -0.430120 2.030240 -5.800610 16.377300 -0.000001 -0.000001 3.904170 -6.080700 4.683420 6.456720 -0.000001 -0.000000 -1.800500 -3.945510 -2.941030 12.994200 -0.242716 4.980390 -91.737300 4.864050 -70.317100 5.348090 -0.000007 -0.000001 -63.396100 21.335500 -6.242750 24.328600 0.000019 0.000005 6.079800 19.347500 -17.822600 22.291600 -0.000001 0.000005 14.820400 5.147420 4.004840 12.994500 -0.242716 -4.980390 92.535700 -6.743030 -69.335100 -5.348130 -0.000001 -0.000004 -48.943300 -54.855000 -96.654000 -24.328900 0.000322 -0.000009 -0.778098 -0.599702 -52.331300 -22.291500 -0.000108 -0.000004 20.758000 5.548680 -8.644230 -2.192480 -6.469440 -0.000000 -173.965000 -7.418320 -6.482570 39.081100 -0.000007 -0.000012 -0.187949 0.385277 26.004700 40.985400 -0.000006 -0.000013 -0.949463 11.503200 -67.767900 11.754300 -0.000000 0.000003 -0.000269 -0.002372 -16.666200 -2.192510 6.469440 -0.000001 177.793000 30.649400 177.600000 -39.081100 -0.002282 -0.040193 -0.045419 0.104476 25.006200 -40.985400 0.000008 0.000006 6.303260 10.776100 -71.130100 -11.754300 -0.000006 -0.000006 -0.002139 -0.030447 -17.811200
0.000000 0.000000 0.000000 0.000000 0.000000 -0.000000 -3.444180 91.455300 1.827850 89.493200 8.221390 2.048020 15.735700 0.000005 -0.000001 103.424000 86.225500 -106.220000 8.984550 -0.406207 -0.000000 -0.369437 1.950460 -5.582590 16.377300 -0.000001 -0.000001 3.873320 -6.018220 4.657680 6.456720 -0.000001 -0.000000 -1.731920 -3.842630 -2.847260 12.994200 -0.242716 4.980390 -91.761200 4.936100 -70.335800 5.348090 -0.000007 -0.000001 -63.383400 22.022400 -6.472820 24.328600 0.000019 0.000005 6.311770 19.174000 -18.612000 22.291600 -0.000001 0.000005 14.778300 5.153080 3.869330 12.994500 -0.242716 -4.980390 92.398600 -6.442150 -69.528000 -5.348130 -0.000001 -0.000004 -47.481600 -54.879400 -94.051600 -24.328900 0.000322 -0.000009 -0.791814 -0.565109 -54.450100 -22.291500 -0.000108 -0.000004 20.732700 5.541350 -8.304440 -2.192480 -6.469440 -0.000000 -173.971000 -7.719820 -6.393500 39.081100 -0.000007 -0.000012 -0.189978 0.388208 26.076100 40.985400 -0.000006 -0.000013 -0.922248 11.326300 -67.869300 11.754300 -0.000000 0.000003 -0.000285 -0.002492 -16.670500 -2.192510 6.469440 -0.000001 177.713000 30.408400 177.601000 -39.081100 -0.002282 -0.040193 -0.053498 0.121572 25.046500 -40.985400 0.000008 0.000006 6.146150 11.071700 -71.097400 -11.754300 -0.000006 -0.000006 -0.002182 -0.030974 -17.832600
0.000000 0.000000 0.000000 0.000000 0.000000 -0.000000 -3.340000 91.454000 1.812280 89.486700 7.684310 2.078050 15.735700 0.000005 -0.000001 102.769000 86.199500 -105.474000 8.984550 -0.406207 -0.000000 -0.302994 1.869940 -5.403080 16.377300 -0.000001 -0.000001 3.819710 -5.852300 4.615780 6.456720 -0.000001 -0.000000 -1.705380 -3.637120 -2.681160 12.994200 -0.242716 4.980390 -91.783500 4.996500 -70.327600 5.348090 -0.000007 -0.000001 -63.369900 22.743000 -6.881260 24.328600 0.000019 0.000005 6.429080 18.955100 -19.131500 22.291600 -0.000001 0.000005 14.580400 5.156460 3.788310 12.994500 -0.242716 -4.980390 92.168600 -5.935390 -69.887700 -5.348130 -0.000001 -0.000004 -45.874500 -54.528500 -90.478100 -24.328900 0.000322 -0.000009 -0.944012 -0.599299 -57.546600 -22.291500 -0.000108 -0.000004 20.510000 5.530480 -7.815990 -2.192480 -6.469440 -0.000000 -174.029000 -8.044550 -6.279210 39.081100 -0.000007 -0.000012 -0.190183 0.388118 26.105700 40.985400 -0.000006 -0.000013 -0.883965 11.114000 -67.946200 11.754300 -0.000000 0.000003 -0.000267 -0.002363 -16.665900 -2.192510 6.469440 -0.000001 177.636000 30.040300 177.534000 -39.081100 -0.002282 -0.040193 -0.058864 0.132634 25.116200 -40.985400 0.000008 0.000006 6.005310 11.278100 -71.033900 -11.754300 -0.000006 -0.000006 -0.002017 -0.028930 -17.749500
0.000000 0.000000 0.000000 0.000000 0.000000 -0.000000 -3.220990 91.454600 1.780890 89.449400 7.130470 2.108350 15.735700 0.000005 -0.000001 101.670000 86.169600 -104.271000 8.984550 -0.406207 -0.000000 -0.218903 1.730300 -5.195640 16.377300 -0.000001 -0.000001 3.679450 -5.561730 4.467730 6.456720 -0.000001 -0.000000 -1.685740 -3.354480 -2.419490 12.994200 -0.242716 4.980390 -91.829200 5.123190 -70.321100 5.348090 -0.000007 -0.000001 -63.293100 23.547800 -7.443630 24.328600 0.000019 0.000005 6.443800 18.739700 -19.368900 22.291600 -0.000001 0.000005 14.420000 5.161380 3.669620 12.994500 -0.242716 -4.980390 91.864300 -5.240770 -70.386900 -5.348130 -0.000001 -0.000004 -44.202400 -53.604600 -85.851100 -24.328900 0.000322 -0.000009 -1.316480 -0.701927 -61.904200 -22.291500 -0.000108 -0.000004 20.460600 5.516320 -7.206660 -2.192480 -6.469440 -0.000000 -174.097000 -8.186720 -6.193780 39.081100 -0.000007 -0.000012 -0.187797 0.382321 26.160600 40.985400 -0.000006 -0.000013 -0.876759 10.698300 -68.030800 11.754300 -0.000000 0.000003 -0.000278 -0.002442 -16.668800 -2.192510 6.469440 -0.000001 177.587000 29.680100 177.474000 -39.081100 -0.002282 -0.040193 -0.060249 0.135260 25.169500 -40.985400 0.000008 0.000006 5.991110 11.497100 -70.994800 -11.754300 -0.000006 -0.000006 -0.001981 -0.028482 -17.731300
0.000000 0.000000 0.000000 0.000000 0.000000 -0.000000 -3.086600 91.450700 1.740760 89.386600 6.542180 2.149630 15.735700 0.000005 -0.000001 100.241000 86.139100 -102.725000 8.984550 -0.406207 -0.000000 -0.128803 1.543520 -4.962060 16.377300 -0.000001 -0.000001 3.587330 -5.179450 4.250930 6.456720 -0.000001 -0.000000 -1.776380 -2.981060 -2.156310 12.994200 -0.242716 4.980390 -91.876300 5.253180 -70.313100 5.348090 -0.000007 -0.000001 -63.214500 24.575900 -8.058640 24.328600 0.000019 0.000005 6.470840 18.654000 -19.524400 22.291600 -0.000001 0.000005 14.372100 5.157480 3.763920 12.994500 -0.242716 -4.980390 91.516600 -4.420940 -71.045000 -5.348130 -0.000001 -0.000004 -42.362600 -52.002300 -80.033600 -24.328900 0.000322 -0.000009 -1.694910 -0.702990 -67.458600 -22.291500 -0.000108 -0.000004 20.602300 5.505250 -6.747010 -2.192480 -6.469440 -0.000000 -174.122000 -8.500620 -6.121540 39.081100 -0.000007 -0.000012 -0.188615 0.382253 26.263300 40.985400 -0.000006 -0.000013 -0.830284 10.418300 -68.135500 11.754300 -0.000000 0.000003 -0.000287 -0.002510 -16.671200 -2.192510 6.469440 -0.000001 177.529000 29.343900 177.407000 -39.081100 -0.002282 -0.040193 -0.066479 0.148111 25.230000 -40.985400 0.000008 0.000006 5.839230 11.817500 -70.908300 -11.754300 -0.000006 -0.000006 -0.001841 -0.026711 -17.659300
0.000000 0.000000 0.000000 0.000000 0.000000 -0.000000 -2.933750 91.446200 1.714120 89.364600 5.778020 2.245570 15.735700 0.000005 -0.000001 99.088900 86.085700 -101.467000 8.984550 -0.406207 -0.000000 -0.002052 1.397480 -4.754440 16.377300 -0.000001 -0.000001 3.460440 -4.758480 3.978610 6.456720 -0.000001 -0.000000 -1.850520 -2.546850 -1.891400 12.994200 -0.242716 4.980390 -91.916800 5.357100 -70.278900 5.348090 -0.000007 -0.000001 -63.174100 25.617500 -8.784620 24.328600 0.000019 0.000005 6.378410 18.495800 -19.411200 22.291600 -0.000001 0.000005 14.155100 5.157860 3.754270 12.994500 -0.242716 -4.980390 91.080000 -3.310040 -71.921300 -5.348130 -0.000001 -0.000004 -40.205800 -49.625900 -73.160900 -24.328900 0.000322 -0.000009 -2.004400 -0.587001 -73.668900 -22.291500 -0.000108 -0.000004 20.886700 5.497840 -6.447780 -2.192480 -6.469440 -0.000000 -174.185000 -8.959550 -5.931440 39.081100 -0.000007 -0.000012 -0.188218 0.380325 26.330500 40.985400 -0.000006 -0.000013 -0.770236 10.130100 -68.249500 11.754300 -0.000000 0.000003 -0.000279 -0.002445 -16.668900 -2.192510 6.469440 -0.000001 177.366000 28.941100 177.394000 -39.081100 -0.002282 -0.040193 -0.075813 0.167313 25.310200 -40.985400 0.000008 0.000006 5.599610 12.270200 -70.805100 -11.754300 -0.000006 -0.000006 -0.001654 -0.024298 -17.561100
0.000000 0.000000 0.000000 0.000000 0.000000 -0.000000 -2.783070 91.446200 1.662340 89.334500 5.050080 2.352130 15.735700 0.000005 -0.000001 97.366400 86.030600 -99.634800 8.984550 -0.406207 -0.000000 0.134627 1.168560 -4.535360 16.377300 -0.000001 -0.000001 3.296020 -4.204390 3.553660 6.456720 -0.000001 -0.000000 -1.862780 -2.186040 -1.547120 12.994200 -0.242716 4.980390 -91.974800 5.518060 -70.273500 5.348090 -0.000007 -0.000001 -63.022800 26.755400 -9.460360 24.328600 0.000019 0.000005 6.406280 18.589900 -19.402200 22.291600 -0.000001 0.000005 13.973000 5.159660 3.711150 12.994500 -0.242716 -4.980390 90.540800 -1.761350 -72.935400 -5.348130 -0.000001 -0.000004 -37.758400 -46.271900 -65.597000 -24.328900 0.000322 -0.000009 -2.515750 -0.453434 -79.767200 -22.291500 -0.000108 -0.000004 21.260000 5.495680 -6.360510 -2.192480 -6.469440 -0.000000 -174.244000 -9.372860 -5.751290 39.081100 -0.000007 -0.000012 -0.187518 0.377969 26.387200 40.985400 -0.000006 -0.000013 -0.725426 9.797260 -68.336000 11.754300 -0.000000 0.000003 -0.000291 -0.002534 -16.672000 -2.192510 6.469440 -0.000001 177.232000 28.576400 177.376000 -39.081100 -0.002282 -0.040193 -0.080809 0.177196 25.395100 -40.985400 0.000008 0.000006 5.565690 12.654200 -70.743900 -11.754300 -0.000006 -0.000006 -0.001793 -0.026096 -17.634200
0.000000 0.000000 0.000000 0.000000 0.000000 -0.000000 -2.617740 91.421800 1.623710 89.306200 4.187080 2.500560 15.735700 0.000005 -0.000001 95.712400 85.969200 -97.843500 8.984550 -0.406207 -0.000000 0.276655 0.941381 -4.261620 16.377300 -0.000001 -0.000001 3.158720 -3.586720 3.049190 6.456720 -0.000001 -0.000000 -1.911010 -1.689250 -1.380080 12.994200 -0.242716 4.980390 -92.033700 5.701550 -70.331200 5.348090 -0.000007 -0.000001 -62.921100 27.883100 -9.892350 24.328600 0.000019 0.000005 6.389380 18.346300 -19.583700 22.291600 -0.000001 0.000005 13.799700 5.165050 3.580940 12.994500 -0.242716 -4.980390 90.025500 -0.089225 -74.209100 -5.348130 -0.000001 -0.000004 -35.319300 -41.861600 -57.478600 -24.328900 0.000322 -0.000009 -3.441020 -0.287301 -85.210100 -22.291500 -0.000108 -0.000004 21.611100 5.495700 -6.360840 -2.192480 -6.469440 -0.000000 -174.287000 -9.933440 -5.562260 39.081100 -0.000007 -0.000012 -0.190146 0.380087 26.577700 40.985400 -0.000006 -0.000013 -0.655936 9.491710 -68.512200 11.754300 -0.000000 0.000003 -0.000277 -0.002432 -16.668400 -2.192510 6.469440 -0.000001 177.011000 28.159100 177.362000 -39.081100 -0.002282 -0.040193 -0.100051 0.216094 25.562600 -40.985400 0.000008 0.000006 5.116430 13.250400 -70.607700 -11.754300 -0.000006 -0.000006 -0.001631 -0.024000 -17.549000
0.000000 0.000000 0.000000 0.000000 0.000000 -0.000000 -2.466210 91.403200 1.588210 89.269500 3.316500 2.689130 15.735700 0.000005 -0.000001 93.595900 85.886000 -95.572400 8.984550 -0.406207 -0.000000 0.459900 0.641832 -3.952680 16.377300 -0.000001 -0.000001 2.934900 -2.934090 2.513980 6.456720 -0.000001 -0.000000 -1.917210 -1.088420 -1.323850 12.994200 -0.242716 4.980390 -92.123900 5.957550 -70.337300 5.348090 -0.000007 -0.000001 -62.748400 28.920800 -10.249600 24.328600 0.000019 0.000005 6.409840 18.023800 -19.954900 22.291600 -0.000001 0.000005 13.450600 5.168070 3.507260 12.994500 -0.242716 -4.980390 89.589100 1.593530 -75.531000 -5.348130 -0.000001 -0.000004 -33.572500 -35.931700 -49.371000 -24.328900 0.000322 -0.000009 -5.286800 -0.075426 -89.171000 -22.291500 -0.000108 -0.000004 22.089000 5.502190 -6.619800 -2.192480 -6.469440 -0.000000 -174.308000 -10.453000 -5.307350 39.081100 -0.000007 -0.000012 -0.190556 0.378484 26.724200 40.985400 -0.000006 -0.000013 -0.607080 9.159290 -68.670700 11.754300 -0.000000 0.000003 -0.000296 -0.002572 -16.673400 -2.192510 6.469440 -0.000001 176.849000 27.629200 177.384000 -39.081100 -0.002282 -0.040193 -0.109831 0.234848 25.723300 -40.985400 0.000008 0.000006 4.940910 13.622900 -70.541100 -11.754300 -0.000006 -0.000006 -0.001669 -0.024499 -17.569300
